<?xml version="1.0" standalone="no"?>
<!DOCTYPE svg PUBLIC "-//W3C//DTD SVG 20010904//EN"
 "http://www.w3.org/TR/2001/REC-SVG-20010904/DTD/svg10.dtd">
<svg version="1.0" xmlns="http://www.w3.org/2000/svg"
 width="952.000000pt" height="952.000000pt" viewBox="0 0 952.000000 952.000000"
 preserveAspectRatio="xMidYMid meet">
<metadata>
Created by potrace 1.11, written by Peter Selinger 2001-2013
</metadata>
<g transform="translate(0.000000,952.000000) scale(0.100000,-0.100000)"
fill="#000000" stroke="none">
<path d="M6470 8873 c-19 -2 -42 -7 -50 -10 -8 -3 -22 -7 -31 -9 -68 -14 -255
-139 -318 -213 -25 -30 -62 -72 -82 -93 -20 -21 -35 -38 -32 -38 2 0 -21 -36
-51 -81 -31 -44 -56 -87 -56 -96 0 -8 -9 -26 -20 -40 -11 -14 -20 -32 -20 -40
0 -9 -9 -32 -19 -52 -17 -31 -32 -74 -36 -106 -1 -5 -5 -17 -8 -25 -55 -142
-41 -400 27 -507 31 -48 71 -87 105 -103 14 -7 38 -19 53 -27 86 -44 189 -52
278 -20 170 62 314 191 473 428 20 30 37 60 37 65 0 5 10 29 21 54 27 55 44
96 57 135 6 17 13 39 18 50 26 71 40 159 43 265 3 181 -32 301 -114 385 -49
51 -53 53 -140 69 -50 9 -92 15 -95 14 -3 0 -21 -3 -40 -5z"/>
<path d="M7247 8179 c-7 -3 -31 -9 -53 -13 -38 -5 -161 -62 -225 -104 -82 -53
-249 -238 -249 -277 0 -8 -6 -18 -12 -22 -14 -9 -58 -89 -58 -105 0 -5 -8 -22
-18 -36 -43 -63 -78 -280 -61 -377 6 -33 12 -65 13 -71 3 -22 108 -128 129
-131 11 -2 26 -8 34 -15 21 -17 180 -13 234 6 89 31 179 78 233 121 76 61 105
92 182 195 85 115 96 132 98 144 1 7 11 33 23 57 32 65 47 103 45 112 -1 4 5
21 13 38 30 58 23 241 -12 318 -26 56 -92 124 -146 149 -47 22 -138 28 -170
11z"/>
<path d="M7876 7381 c-4 -6 -13 -8 -21 -4 -9 3 -21 1 -28 -5 -13 -10 -60 -24
-90 -27 -9 -1 -25 -9 -35 -17 -9 -8 -38 -24 -64 -36 -26 -12 -62 -34 -80 -50
-18 -16 -38 -31 -45 -33 -16 -6 -113 -98 -113 -108 0 -5 -15 -20 -34 -35 -19
-14 -44 -45 -55 -68 -22 -44 -34 -64 -62 -108 -29 -46 -43 -117 -44 -225 0
-60 4 -76 27 -109 40 -59 113 -89 211 -89 43 0 81 3 84 7 4 3 13 6 22 6 9 0
29 7 45 15 15 8 33 15 39 15 6 0 18 6 26 13 9 8 32 20 51 28 55 21 260 183
260 205 0 3 20 26 45 51 25 24 45 49 45 55 0 6 18 37 40 70 22 33 40 67 40 74
0 8 7 26 16 40 12 17 17 51 19 114 2 76 0 92 -16 106 -11 9 -19 21 -19 26 0
16 -65 67 -87 68 -12 0 -24 4 -28 9 -3 5 -18 9 -33 9 -15 0 -46 2 -68 6 -26 5
-44 3 -48 -3z"/>
<path d="M5653 7256 c-28 -6 -55 -14 -59 -18 -4 -5 -16 -8 -26 -8 -10 0 -26
-4 -36 -10 -9 -5 -33 -17 -52 -25 -63 -28 -118 -61 -157 -93 -106 -90 -173
-142 -182 -142 -5 0 -34 -28 -63 -62 -29 -34 -68 -77 -85 -94 -18 -18 -33 -37
-33 -42 0 -5 -16 -29 -35 -53 -19 -24 -35 -48 -35 -53 0 -5 -7 -17 -15 -26 -9
-10 -18 -27 -20 -40 -2 -12 -10 -32 -18 -44 -15 -23 -44 -120 -36 -122 2 0 -1
-7 -7 -15 -6 -8 -16 -34 -24 -59 -7 -25 -23 -67 -36 -95 -12 -27 -26 -63 -30
-80 -3 -16 -12 -40 -20 -52 -7 -12 -16 -34 -19 -50 -4 -27 -22 -72 -46 -115
-5 -10 -9 -27 -9 -37 0 -11 -4 -23 -10 -26 -5 -3 -10 -15 -10 -26 0 -10 -5
-19 -11 -19 -5 0 -8 -4 -5 -8 3 -5 -3 -24 -12 -43 -10 -19 -24 -54 -32 -79 -7
-25 -19 -52 -26 -60 -6 -8 -15 -26 -19 -40 -4 -14 -16 -45 -27 -70 -12 -25
-26 -58 -33 -75 -17 -41 -55 -122 -107 -230 -24 -49 -43 -95 -43 -101 0 -6 -5
-18 -11 -25 -14 -18 -44 -79 -44 -90 0 -7 -52 -119 -79 -169 -43 -81 -61 -120
-57 -120 3 0 -24 -42 -60 -92 -35 -51 -72 -109 -80 -128 -9 -19 -25 -44 -35
-56 -11 -11 -32 -39 -47 -61 -41 -62 -105 -142 -156 -197 -25 -27 -46 -53 -46
-57 0 -4 -13 -17 -30 -29 -16 -12 -30 -25 -30 -30 0 -5 -21 -29 -47 -52 -27
-23 -72 -66 -101 -95 -29 -29 -57 -53 -62 -53 -5 0 -10 -6 -12 -13 -3 -11 -42
-49 -160 -154 -20 -17 -39 -29 -42 -26 -3 4 -6 -1 -6 -10 0 -9 -6 -17 -12 -17
-7 0 -47 -32 -90 -70 -42 -39 -80 -70 -86 -70 -5 0 -17 -9 -27 -20 -10 -11
-23 -20 -30 -20 -7 0 -20 -9 -30 -20 -10 -11 -23 -20 -30 -20 -6 0 -22 -11
-35 -24 -12 -14 -35 -28 -50 -31 -15 -3 -38 -17 -50 -31 -13 -13 -31 -24 -40
-24 -9 0 -21 -5 -28 -12 -7 -7 -12 -8 -12 -3 0 5 -13 -4 -29 -19 -16 -15 -31
-27 -33 -26 -8 5 -66 -26 -90 -49 -16 -13 -28 -22 -28 -18 0 8 -85 -38 -126
-70 -17 -12 -36 -23 -41 -23 -6 0 -17 -7 -24 -16 -11 -14 -80 -62 -178 -126
-48 -32 -270 -233 -270 -246 -1 -7 -8 -15 -16 -18 -8 -4 -15 -12 -15 -20 0 -7
-9 -18 -20 -24 -11 -6 -18 -15 -15 -20 3 -5 -3 -15 -15 -22 -11 -7 -20 -18
-20 -25 0 -6 -11 -24 -24 -40 -20 -24 -34 -50 -76 -148 -31 -72 -58 -259 -53
-360 7 -116 9 -134 16 -142 4 -3 7 -17 7 -30 0 -13 4 -31 9 -41 19 -37 41 -93
41 -103 0 -6 9 -23 19 -38 11 -15 33 -52 49 -83 16 -31 78 -111 138 -178 131
-146 220 -215 393 -300 63 -31 212 -58 301 -55 69 2 177 20 275 47 42 11 82
27 152 60 23 11 44 18 47 16 2 -2 12 5 22 14 19 17 63 37 76 34 3 0 18 10 32
23 25 23 52 41 91 60 11 5 38 28 60 50 21 23 44 41 50 41 7 0 50 36 96 80 46
44 85 80 86 80 3 1 189 193 250 257 27 29 56 64 64 79 7 15 33 47 57 71 23 24
42 48 42 53 0 6 5 10 12 10 6 0 9 3 5 6 -6 7 15 36 61 81 17 17 32 36 32 41 0
6 7 12 15 16 8 3 15 12 15 21 0 8 4 15 10 15 5 0 44 44 87 97 43 53 104 128
135 167 32 39 82 103 113 143 30 40 66 80 80 89 14 9 25 20 25 23 0 4 21 30
46 57 25 27 72 83 105 124 134 170 190 233 321 362 75 75 139 134 141 132 2
-2 16 10 32 26 16 17 33 30 37 30 5 0 23 14 41 30 18 17 57 42 87 56 30 15 65
35 77 47 12 11 46 32 75 48 87 45 162 82 174 84 6 2 31 15 55 31 24 15 45 26
47 25 2 -2 178 84 222 109 8 5 32 17 53 27 77 36 112 54 127 63 37 23 206 100
218 100 5 0 23 7 38 15 16 8 37 15 46 15 9 0 20 5 23 10 3 6 14 10 24 10 10 0
24 7 31 15 7 8 19 15 27 15 21 0 110 40 191 85 23 13 42 21 42 17 0 -3 10 4
23 15 12 11 38 27 58 36 20 9 42 23 49 32 7 8 18 15 25 15 7 0 19 7 26 16 7 9
21 19 30 23 22 8 119 99 119 111 0 5 10 16 22 24 12 9 18 16 14 16 -5 0 3 10
17 23 26 22 94 140 100 174 2 10 7 25 10 33 13 33 37 161 42 221 6 83 6 295 0
334 -3 17 -7 48 -10 70 -10 96 -29 194 -46 240 -10 28 -19 60 -19 72 0 12 -4
25 -10 28 -5 3 -10 19 -10 34 0 16 -7 34 -15 41 -8 7 -15 21 -15 33 0 11 -9
35 -21 53 -11 19 -18 34 -15 34 3 0 -3 17 -14 37 -11 21 -20 45 -20 54 0 9 -6
22 -14 28 -8 7 -18 25 -21 41 -4 16 -14 39 -24 52 -10 13 -22 34 -26 48 -4 14
-21 47 -39 75 -41 64 -53 86 -64 110 -6 11 -19 29 -31 39 -11 11 -21 24 -21
31 0 7 -9 20 -20 30 -11 10 -18 21 -15 25 2 4 -7 18 -21 31 -15 13 -29 31 -33
40 -11 31 -210 246 -266 289 -30 23 -55 46 -55 51 0 5 -7 9 -15 9 -8 0 -22 11
-31 25 -9 14 -21 25 -28 25 -6 0 -35 18 -64 40 -29 22 -56 40 -60 40 -4 0 -18
9 -32 20 -14 11 -34 20 -46 20 -11 0 -24 4 -30 9 -5 5 -43 23 -84 41 -41 18
-88 39 -105 47 -16 8 -43 19 -60 25 -45 14 -243 17 -302 4z m523 -1701 c99
-110 191 -216 204 -235 13 -19 33 -44 44 -55 12 -11 34 -36 50 -55 15 -19 45
-53 65 -75 20 -22 40 -45 44 -51 4 -6 -27 -40 -71 -78 -42 -37 -86 -75 -97
-85 -24 -21 -56 -35 -70 -31 -25 7 -172 41 -191 44 -12 2 -31 9 -42 15 -12 6
-25 10 -29 10 -4 -1 -15 0 -23 4 -8 3 -55 15 -105 27 -49 11 -97 24 -105 27
-8 3 -23 5 -32 4 -10 -1 -18 3 -18 8 0 6 -7 11 -16 11 -19 0 -4 -21 106 -140
137 -149 210 -235 210 -246 0 -6 -18 -24 -39 -38 -22 -15 -42 -34 -45 -42 -3
-8 -12 -14 -20 -14 -8 0 -16 -3 -18 -8 -4 -10 -90 -82 -98 -82 -9 0 -240 256
-240 267 0 4 -39 51 -86 103 -47 52 -99 112 -117 133 -18 21 -47 53 -64 72
-18 18 -33 37 -33 41 0 5 -16 25 -36 45 -25 26 -34 41 -28 51 8 13 112 107
183 165 l27 23 85 -22 c46 -12 86 -24 89 -28 3 -3 43 -14 90 -24 81 -16 131
-30 175 -46 11 -4 38 -13 60 -19 22 -5 51 -13 64 -17 14 -4 22 -2 20 4 -2 6
-77 92 -166 191 -90 99 -163 184 -163 188 0 12 186 173 199 173 6 0 11 8 11
17 0 21 -12 33 226 -232z m-936 -682 c65 -19 170 -93 223 -157 20 -24 37 -48
37 -52 0 -4 11 -22 25 -39 13 -18 26 -45 29 -60 3 -15 9 -32 14 -38 11 -14 12
-20 17 -128 4 -89 -12 -170 -33 -177 -7 -2 -12 -10 -12 -18 0 -20 -41 -95 -62
-115 -10 -9 -18 -20 -18 -24 0 -16 -103 -99 -150 -121 -8 -4 -27 -16 -42 -26
-16 -11 -28 -17 -28 -14 0 3 -23 -3 -51 -14 -76 -30 -214 -28 -293 5 -103 43
-254 183 -286 265 -7 19 -17 39 -22 45 -4 5 -8 21 -8 35 0 14 -4 30 -9 36 -34
34 -3 283 38 309 6 3 11 15 11 26 0 10 5 19 10 19 6 0 10 5 10 11 0 7 10 22
23 34 12 13 47 48 77 79 30 31 60 56 66 56 6 0 18 7 25 16 18 22 41 32 152 62
76 21 157 16 257 -15z m-1257 -919 c26 -28 47 -54 47 -57 0 -3 10 -17 23 -32
32 -38 392 -442 438 -492 22 -22 39 -46 39 -51 0 -6 4 -12 10 -14 5 -1 -39
-47 -99 -100 -77 -69 -117 -98 -135 -98 -13 0 -27 4 -30 9 -3 5 -20 12 -38 15
-18 3 -44 8 -58 11 -14 3 -32 6 -40 8 -8 1 -19 5 -25 9 -5 3 -30 9 -55 13 -25
4 -47 11 -50 14 -3 4 -43 15 -90 25 -47 10 -105 24 -129 32 -24 8 -46 12 -49
9 -3 -3 43 -53 101 -111 59 -58 107 -110 107 -116 0 -5 11 -21 25 -36 13 -15
40 -45 59 -67 l34 -40 -108 -98 c-60 -53 -111 -97 -114 -97 -6 0 -247 267
-247 274 0 7 -29 40 -216 250 -84 93 -153 173 -153 176 0 6 75 76 182 169 l37
32 67 -20 c37 -11 71 -18 75 -15 4 2 10 0 13 -5 4 -5 40 -15 81 -22 42 -6 78
-16 81 -20 3 -5 15 -9 28 -9 12 0 26 -3 30 -7 3 -4 12 -8 19 -10 86 -18 177
-42 186 -47 29 -18 6 16 -39 58 -27 26 -50 51 -50 56 0 6 -6 10 -12 11 -7 0
-40 32 -73 71 -33 38 -68 79 -77 89 -10 10 -18 22 -18 26 0 4 -12 20 -27 35
-17 18 -23 32 -17 38 41 41 210 189 214 187 3 -1 27 -25 53 -53z m702 -52 c-2
-3 7 -13 20 -24 14 -11 25 -24 25 -31 0 -6 9 -20 20 -32 24 -26 18 -53 -16
-66 -13 -4 -24 -15 -24 -24 0 -8 -7 -15 -15 -15 -8 0 -20 -9 -27 -20 -7 -11
-17 -20 -22 -20 -5 0 -35 -25 -67 -55 -69 -66 -64 -67 -156 41 l-62 72 132
120 132 120 32 -31 c18 -17 31 -33 28 -35z m-1497 -807 c59 -19 104 -48 185
-115 49 -41 117 -127 117 -149 0 -5 6 -13 13 -19 7 -6 14 -23 15 -37 1 -14 6
-34 11 -44 17 -32 23 -135 11 -201 -14 -84 -62 -180 -116 -236 -24 -25 -44
-49 -44 -54 0 -6 -6 -10 -13 -10 -8 0 -24 -11 -37 -25 -12 -13 -26 -22 -30
-20 -4 2 -18 -7 -30 -20 -13 -14 -28 -25 -33 -25 -5 0 -23 -6 -40 -14 -31 -14
-136 -41 -148 -39 -3 1 -28 3 -55 6 -28 2 -55 6 -60 9 -5 4 -27 9 -49 13 -92
16 -252 151 -299 251 -7 17 -19 34 -24 38 -6 3 -13 25 -17 49 -4 23 -10 46
-13 52 -25 42 -6 250 25 268 7 4 13 14 13 22 0 24 81 134 133 180 26 24 73 56
103 71 30 15 57 31 60 36 3 5 12 7 19 4 8 -3 18 1 24 8 6 7 22 11 35 9 13 -3
26 -1 29 4 10 16 157 7 215 -12z"/>
<path d="M4907 4595 c-45 -34 -64 -70 -72 -134 -2 -17 0 -33 6 -36 5 -4 9 -17
9 -29 0 -13 9 -35 20 -49 11 -14 20 -29 20 -34 0 -9 91 -107 126 -136 31 -26
131 -45 163 -31 9 4 19 8 22 8 12 2 79 66 79 75 0 6 7 14 15 18 20 11 25 81 8
122 -7 18 -13 41 -13 50 0 25 -164 191 -188 191 -12 0 -24 5 -27 10 -3 6 -32
10 -64 10 -51 0 -64 -4 -104 -35z"/>
<path d="M2899 2830 c-21 -11 -50 -41 -68 -69 -27 -41 -32 -58 -30 -101 2 -29
10 -61 19 -73 9 -12 24 -39 34 -59 25 -56 143 -148 210 -163 63 -15 89 -7 153
49 36 32 42 43 48 91 10 80 -14 137 -95 227 -105 114 -185 143 -271 98z"/>
<path d="M8145 6523 c-16 -2 -37 -6 -45 -9 -8 -3 -17 -6 -20 -6 -3 0 -21 -9
-40 -19 -19 -11 -42 -19 -51 -19 -9 0 -22 -6 -28 -13 -6 -8 -29 -19 -51 -26
-22 -6 -40 -16 -40 -21 0 -5 -8 -11 -17 -14 -34 -11 -210 -180 -237 -228 -74
-126 -92 -191 -74 -260 15 -59 47 -90 119 -115 62 -22 122 -18 217 13 51 17
171 75 213 102 87 57 108 73 141 110 20 22 39 38 42 34 3 -3 6 2 6 12 0 9 7
19 15 22 8 4 15 12 15 20 0 8 9 19 20 26 11 7 20 16 20 20 0 3 16 41 36 83 31
67 35 83 29 123 -12 78 -33 115 -83 140 -44 23 -125 34 -187 25z"/>
<path d="M8219 5739 c-8 -4 -40 -12 -72 -18 -33 -6 -111 -36 -181 -71 -130
-63 -178 -106 -226 -197 -55 -106 -13 -196 101 -222 57 -13 182 -6 242 13 26
8 47 12 47 9 0 -4 5 -2 12 5 7 7 18 12 25 12 6 0 35 13 63 30 27 16 50 27 50
24 0 -3 34 25 75 62 96 86 133 139 138 202 4 43 1 52 -28 84 -19 20 -49 41
-67 47 -47 16 -162 28 -179 20z"/>
</g>
</svg>
